<?xml version="1.0" encoding="UTF-8"?><svg id="Layer_1" xmlns="http://www.w3.org/2000/svg" viewBox="0 0 236.16 213.52"><defs><style>.cls-1{fill:#f0ce59;}.cls-2{fill:#1f1f1f;}</style></defs><polygon class="cls-1" points="89.65 189.91 43.51 165.55 113.8 13.14 146.5 36.35 89.65 189.91"/><polygon class="cls-1" points="207.41 168.13 199.66 179.57 152.78 47.05 161.45 33.39 207.41 168.13"/><polygon class="cls-1" points="187.91 189.91 171.82 189.91 172.25 169.29 187.33 169.29 187.91 189.91"/><polygon class="cls-1" points="182.88 160.67 172.25 169.29 115.87 130.23 130.95 130.23 182.88 160.67"/><polygon class="cls-2" points="172.25 169.29 171.82 189.91 115.87 149.76 115.87 130.23 172.25 169.29"/><polygon class="cls-2" points="89.65 189.91 64.8 192.62 25.86 173.71 43.51 165.55 89.65 189.91"/><polygon class="cls-2" points="43.51 165.55 25.86 173.71 98.73 27.98 113.8 13.14 43.51 165.55"/><polygon class="cls-2" points="199.66 179.57 177.08 180.26 132.99 72.84 141.87 48.84 152.78 47.05 199.66 179.57"/><polygon class="cls-2" points="161.45 33.39 152.78 47.05 141.87 48.84 146.5 36.35 144.75 35.11 161.45 33.39"/></svg>
